<svg width="96" height="96" viewBox="0 0 96 96" fill="none" xmlns="http://www.w3.org/2000/svg">
<rect width="96" height="96" rx="16" fill="#6B774E"/>
<path d="M65.7117 23.6853C67.6939 23.5706 69.4338 23.628 70.6803 23.714C71.3047 23.757 71.8085 23.8074 72.1605 23.8478C72.3366 23.868 72.4749 23.8857 72.5718 23.8987C72.6202 23.9053 72.6583 23.9106 72.6855 23.9145C72.6991 23.9165 72.71 23.918 72.7181 23.9192C72.7222 23.9198 72.7255 23.9203 72.7282 23.9207C72.7295 23.9209 72.7307 23.9211 72.7317 23.9213C72.7322 23.9214 72.7328 23.9214 72.7331 23.9215C72.7336 23.9218 72.7302 23.9398 72.4583 25.1945C73.9958 25.1945 74 25.195 74 25.1955V25.1995C74 25.2016 73.9999 25.2042 73.9999 25.2072C73.9999 25.2132 73.9998 25.2209 73.9997 25.2302C73.9994 25.2488 73.999 25.2741 73.998 25.3058C73.9962 25.3693 73.9927 25.4583 73.9858 25.5709C73.9722 25.7959 73.9454 26.1154 73.8929 26.5119C73.788 27.3039 73.5797 28.4093 73.1645 29.6868C72.336 32.2358 70.6674 35.5196 67.2984 38.3466C63.8051 41.278 59.2134 42.2066 55.6495 42.4366C53.8516 42.5527 52.2655 42.4946 51.1274 42.4078C51.1007 42.4058 51.0744 42.4035 51.0483 42.4015C51.0711 42.4901 51.0833 42.5821 51.0833 42.6765C51.0833 45.0682 50.2407 47.8466 49.4493 49.9496C49.0474 51.0176 48.6459 51.9439 48.3446 52.604C48.1938 52.9344 48.0677 53.1991 47.9785 53.3827C47.9339 53.4745 47.8985 53.546 47.8739 53.5954C47.8615 53.6201 47.8519 53.6392 47.8451 53.6526L47.8349 53.6729C47.8346 53.6735 47.8343 53.674 47.8341 53.6744C47.8341 53.6746 47.834 53.6748 47.8339 53.6749C47.8338 53.6751 47.8337 53.6753 46.4167 53.1657L47.8337 53.6752C47.4983 54.3319 46.592 54.6361 45.8094 54.3547C45.0269 54.0733 44.6643 53.3129 44.9995 52.6563L44.9996 52.6561C44.9998 52.6558 45.0001 52.6551 45.0007 52.654C45.0017 52.6519 45.0036 52.6483 45.0061 52.6433C45.0112 52.6333 45.0191 52.6175 45.0297 52.5963C45.0508 52.554 45.0825 52.4898 45.1234 52.4057C45.2051 52.2376 45.3231 51.9901 45.4653 51.6787C45.7499 51.0549 46.1297 50.1784 46.509 49.1704C46.9149 48.0919 47.3064 46.8978 47.5863 45.72C47.498 45.733 47.3777 45.7499 47.2283 45.7688C46.9046 45.8097 46.4431 45.8607 45.8726 45.9042C44.7345 45.991 43.1484 46.0491 41.3505 45.933C37.7866 45.703 33.1949 44.7744 29.7016 41.843C26.3326 39.016 24.6641 35.7322 23.8356 33.1832C23.4204 31.9057 23.212 30.8003 23.1071 30.0083C23.0546 29.6118 23.0278 29.2923 23.0142 29.0673C23.0073 28.9547 23.0038 28.8657 23.002 28.8022C23.001 28.7705 23.0006 28.7452 23.0003 28.7266C23.0002 28.7173 23.0001 28.7096 23.0001 28.7036C23.0001 28.7006 23 28.698 23 28.6959V28.6919C23 28.6914 23.0044 28.6909 24.5417 28.6909C24.2697 27.4354 24.2664 27.4182 24.2669 27.4179C24.2672 27.4178 24.2678 27.4178 24.2683 27.4177C24.2693 27.4175 24.2705 27.4173 24.2718 27.4171C24.2745 27.4167 24.2779 27.4162 24.2819 27.4156C24.29 27.4144 24.3009 27.4129 24.3145 27.4109C24.3417 27.407 24.3798 27.4017 24.4282 27.3951C24.5251 27.3821 24.6634 27.3644 24.8395 27.3442C25.1916 27.3038 25.6953 27.2534 26.3197 27.2104C27.5662 27.1244 29.3061 27.067 31.2883 27.1817C35.2177 27.4091 40.2894 28.324 44.295 31.2051C45.784 32.276 46.8836 33.4186 47.6858 34.569C48.2699 32.3413 49.6887 29.8782 52.705 27.7087C56.7106 24.8276 61.7823 23.9127 65.7117 23.6853ZM47.6744 45.3325C47.6744 45.3323 47.6745 45.3321 47.6746 45.3319L47.4583 44.4247L47.8276 44.5408V44.5407C47.7165 44.5057 47.5937 44.4673 47.4583 44.4247C47.5619 44.859 47.6297 45.1446 47.6744 45.3325ZM31.0763 29.7629C29.2825 29.6591 27.702 29.711 26.5723 29.7889C26.4362 29.7983 26.3069 29.8081 26.1847 29.818C26.2791 30.4946 26.4609 31.4277 26.8102 32.5025C27.5443 34.761 29.0007 37.5959 31.8818 40.0135C34.6384 42.3267 38.38 43.1463 41.587 43.3533C43.1745 43.4558 44.5833 43.4046 45.5935 43.3275C45.8373 43.3089 46.0571 43.2887 46.2496 43.2691C46.2734 43.1835 46.298 43.0909 46.322 42.9919C46.4818 42.3338 46.6275 41.4044 46.5693 40.3314C46.4544 38.2094 45.5487 35.5145 42.2883 33.1695C39.0022 30.8059 34.699 29.9726 31.0763 29.7629ZM70.4277 26.2925C69.298 26.2146 67.7175 26.1627 65.9237 26.2665C62.301 26.4762 57.9978 27.3095 54.7117 29.6731C51.4513 32.0181 50.5456 34.713 50.4307 36.835C50.3725 37.908 50.5182 38.8374 50.678 39.4955C50.702 39.5945 50.7265 39.6871 50.7503 39.7727C50.9429 39.7923 51.1627 39.8125 51.4065 39.8311C52.4168 39.9082 53.8255 39.9594 55.413 39.8569C58.62 39.6499 62.3616 38.8303 65.1182 36.5171C67.9993 34.0995 69.4557 31.2646 70.1898 29.0061C70.5391 27.9313 70.7208 26.9982 70.8153 26.3216C70.6931 26.3117 70.5638 26.3019 70.4277 26.2925ZM24.8158 29.9639C24.8158 29.9639 24.8159 29.9639 24.8161 29.9639C24.8162 29.9639 24.8164 29.9638 24.8166 29.9638C24.8161 29.9638 24.8159 29.9639 24.8158 29.9639ZM24.5417 28.6909H23C23 28.0657 23.5328 27.5299 24.2659 27.4181L24.5417 28.6909ZM72.1839 26.4675C72.1841 26.4675 72.1842 26.4675 72.1842 26.4675C72.1841 26.4675 72.1838 26.4674 72.1834 26.4674C72.1834 26.4674 72.1838 26.4675 72.1839 26.4675ZM72.7341 23.9217C73.4672 24.0335 74 24.5693 74 25.1945H72.4583L72.7341 23.9217Z" fill="#F7F4E8"/>
<path d="M62.2773 53.5525L62.316 53.5528C63.1271 53.5671 63.8027 54.0283 63.8928 54.635L62.2773 54.7693C63.8927 54.635 63.8929 54.6361 63.8929 54.6361L63.8931 54.6376C63.8931 54.6376 63.8935 54.64 63.8937 54.6416C63.8942 54.6447 63.8947 54.6487 63.8954 54.6536C63.8968 54.6634 63.8986 54.6767 63.9007 54.6935C63.9051 54.727 63.911 54.7743 63.9177 54.8345C63.9311 54.9547 63.9478 55.1265 63.9627 55.3426C63.9924 55.7742 64.0149 56.3849 63.9878 57.1156C63.9339 58.5691 63.6825 60.5359 62.8708 62.5247C62.0597 64.5119 60.6613 66.5879 58.2532 68.1709C55.8155 69.7732 52.4708 70.7858 48 70.7858C43.5293 70.7858 40.1845 69.7733 37.7468 68.1709C35.3387 66.5879 33.9404 64.5119 33.1293 62.5247C32.3176 60.5359 32.0661 58.5691 32.0122 57.1156C31.9851 56.3849 32.0076 55.7742 32.0373 55.3426C32.0522 55.1265 32.0689 54.9547 32.0823 54.8345C32.089 54.7743 32.0949 54.727 32.0993 54.6935C32.1014 54.6767 32.1032 54.6634 32.1046 54.6536C32.1053 54.6487 32.1059 54.6447 32.1063 54.6416C32.1065 54.64 32.1069 54.6376 32.1069 54.6376L32.1072 54.6361C32.1072 54.6361 32.1073 54.635 33.7228 54.7693L32.1072 54.635C32.1987 54.0187 32.8946 53.5525 33.7228 53.5525H62.2773ZM35.2583 55.9862C35.2488 56.2905 35.2469 56.6487 35.2617 57.048C35.3107 58.3694 35.5398 60.1024 36.2382 61.8135C36.9372 63.5262 38.0785 65.1502 39.8918 66.3421C41.6755 67.5147 44.2339 68.3521 48 68.3521C51.7662 68.3521 54.3245 67.5146 56.1082 66.3421C57.9215 65.1502 59.0629 63.5262 59.7619 61.8135C60.4602 60.1025 60.6893 58.3694 60.7383 57.048C60.7531 56.6487 60.7512 56.2905 60.7417 55.9862H35.2583Z" fill="#F7F4E8"/>
</svg>
