<svg width="96" height="96" viewBox="0 0 96 96" fill="none" xmlns="http://www.w3.org/2000/svg">
<rect width="96" height="96" rx="16" fill="#6B774E"/>
<path d="M47.5 42C52.4816 42 56.52 37.9706 56.52 33C56.52 28.0294 52.4816 24 47.5 24C42.5184 24 38.48 28.0294 38.48 33C38.48 37.9706 42.5184 42 47.5 42Z" stroke="#F7F4E8" stroke-width="3"/>
<path d="M67.9936 61.3333C68 60.8955 68 60.4507 68 60C68 53.3725 58.8219 48 47.5 48C36.1782 48 27 53.3725 27 60C27 66.6275 27 72 47.5 72C53.2169 72 57.3395 71.5821 60.3125 70.8357" stroke="#F7F4E8" stroke-width="3" stroke-linecap="round"/>
</svg>
