<svg width="96" height="96" viewBox="0 0 96 96" fill="none" xmlns="http://www.w3.org/2000/svg">
<rect width="96" height="96" rx="16" fill="#6B774E"/>
<path d="M40.2803 67.9905C45.3295 66.5836 50.666 66.5836 55.7152 67.9905C56.5452 68.2218 57.0271 69.0699 56.7915 69.8847C56.5559 70.6995 55.692 71.1726 54.862 70.9413C50.3706 69.6898 45.6249 69.6898 41.1335 70.9413C40.3035 71.1726 39.4395 70.6995 39.2039 69.8847C38.9683 69.0699 39.4502 68.2218 40.2803 67.9905ZM30 42.6978C30 31.6134 40.3827 22.9309 52.0801 25.433C52.0818 25.4333 52.0834 25.4337 52.085 25.434C57.2348 26.5525 61.7599 29.9065 64.1242 34.5711H64.1241C68.756 43.7084 64.1715 53.2707 57.3302 57.7909V59.3229C57.3303 59.3562 57.4385 60.3901 56.9891 61.236C56.3981 62.3486 55.2095 62.8197 53.7681 62.8197H42.2903V62.8197C41.1239 62.8286 39.7771 62.6507 39.088 61.5122C38.7807 61.0045 38.7311 60.4841 38.7194 60.1613C38.7133 59.9917 38.7172 59.8263 38.7207 59.6976C38.7246 59.5555 38.7282 59.4522 38.7282 59.3434V57.8114C33.9084 54.6322 30 48.9083 30 42.6978ZM33.1246 42.6978C33.1247 47.9449 36.676 53.0349 41.0986 55.6587C41.5667 55.9364 41.8528 56.4343 41.8528 56.9712V59.3434C41.8528 59.4874 41.8484 59.6307 41.8452 59.7404C41.9605 59.749 42.1026 59.754 42.2761 59.7524L42.2903 59.7524H53.7681C53.9786 59.7524 54.121 59.735 54.2119 59.7173C54.2123 59.6862 54.2122 59.6505 54.2114 59.6081C54.2105 59.5673 54.2095 59.5328 54.2081 59.4828C54.207 59.4387 54.2056 59.3815 54.2056 59.3229V56.9508C54.2056 56.4136 54.4919 55.9155 54.9604 55.6378C61.1424 51.9741 65.202 43.71 61.3722 36.028L61.3267 35.9376C59.4006 32.1376 55.6787 29.3575 51.4149 28.43C41.6981 26.3515 33.1246 33.5376 33.1246 42.6978Z" fill="#F7F4E8"/>
</svg>
