<svg width="1162" height="1370" viewBox="0 0 1162 1370" fill="none" xmlns="http://www.w3.org/2000/svg">
<path opacity="0.503384" d="M869.433 4.79416C892.999 -3.64 918.068 -1.38292 938.784 15.0595L939.767 15.8528V15.8549C956.782 29.8253 964.59 48.4475 965.178 67.6742C965.72 85.4217 960.174 102.613 953.284 117.387C946.71 131.484 937.698 145.879 927.505 159.956C932.465 159.212 937.528 158.789 942.677 158.759C976.615 158.565 1006.29 175.136 1030.28 206.645C1041.97 221.99 1036.47 237.833 1034.27 242.695C1031.78 248.176 1028.42 251.964 1026.93 253.57C1023.53 257.257 1019.53 260.415 1016.56 262.639C1010.09 267.479 1001.31 273.13 991.637 278.978C974.708 289.207 952.596 301.484 929.233 313.612C953.669 326.559 975.329 347.559 986.691 381.149L987.121 382.443C991.526 395.992 994.665 414.524 985.463 431.8C974.714 451.979 954.561 457.63 941.15 458.734C927.825 459.831 913.964 457.393 902.142 454.384C889.774 451.235 876.828 446.709 864.408 441.752C858.373 439.343 852.321 436.774 846.351 434.122C846.553 440.848 846.515 447.641 846.22 454.39C845.113 479.692 840.27 508.067 828.146 531.391C815.591 555.544 792.041 579.012 754.778 579.012C720.246 579.012 701.478 552.09 692.903 534.119C691.727 531.655 690.619 529.121 689.575 526.529C682.742 534.572 675.574 542.127 668.13 548.858C646.746 568.193 612.524 589.942 573.702 577.187V577.184C556.317 571.474 545.836 558.811 540.088 546.902C534.568 535.467 532.393 522.936 531.644 511.769C530.136 489.269 533.896 463.416 539.736 440.227C541.577 432.919 543.699 425.573 546.068 418.376C545.19 417.927 544.319 417.451 543.457 416.941L543.45 416.937C528.9 408.336 511.734 395.379 503.221 372.125C495.252 350.356 497.095 325.49 504.09 297.668L504.623 295.655C510.376 274.99 523.67 258.161 538.139 245.951C553.211 233.232 571.735 223.624 590.715 218.831C594.677 217.831 598.84 216.999 603.141 216.409C596.24 196.554 591.057 175.348 588.823 153.936C584.548 112.98 590.766 67.1542 621.781 30.4853H621.783C630.154 20.5896 640.414 11.4673 653.099 6.17595C666.927 0.408284 681.855 0.00624621 695.738 5.39123C708.43 10.3141 717.5 18.9831 723.685 26.696C730.01 34.5828 734.947 43.4989 738.839 52.0097C747.607 71.1844 753.695 94.2397 757.49 114.173C776.093 87.0864 793.617 64.8068 810.065 47.5743C828.382 28.3844 848.176 12.4018 869.433 4.79416ZM736.54 282.208C726.764 290.135 713.041 292.642 700.567 287.859C697.768 286.786 695.18 285.401 692.828 283.76C693.905 301.982 680.316 318.136 661.491 320.41C641.872 322.78 624 309.177 621.572 290.028C621.271 287.654 620.855 286.339 620.549 285.669C620.082 285.543 619.243 285.373 617.936 285.319C615.68 285.227 612.535 285.497 608.647 286.479C600.682 288.491 591.973 292.891 584.96 298.809C578.258 304.464 574.977 309.865 573.818 313.599L573.615 314.324C567.872 337.161 569.661 345.953 570.635 348.613C571.002 349.616 571.623 351.395 577.22 355.1C577.773 355.099 578.443 355.089 579.236 355.044C579.25 355.044 579.264 355.041 579.278 355.04C581.142 353.043 583.116 351.13 585.207 349.351C593.338 342.433 610.333 331.965 631.501 338.405L632.513 338.725L632.552 338.738C635.96 339.859 641.284 341.978 646.484 346.127C652.058 350.574 658.784 358.532 660.339 370.263C661.844 381.615 657.692 390.505 654.345 395.532C651.062 400.461 647.231 403.793 644.703 405.746C638.321 410.678 630.403 414.208 623.361 416.696C618.238 427.353 613.135 441.507 609.256 456.907C604.394 476.214 602.223 494.422 603.08 507.206C603.126 507.898 603.18 508.551 603.24 509.163C607.387 507.192 612.866 503.576 619.479 497.597C635.085 483.486 651.378 461.428 665.664 437.301C669.063 431.56 672.263 425.841 675.241 420.257C675.741 412.233 676.59 404.425 677.795 397.029C679.527 386.41 682.143 375.706 686.049 366.058C689.701 357.038 695.822 345.55 706.579 337.07L706.586 337.064C708.973 335.183 713.126 332.217 718.754 330.129C723.977 328.192 733.979 325.801 745.268 329.822C745.056 323.635 745.953 317.908 748.202 313.61C750.004 311.826 752.38 309.902 754.466 308.347C753.461 307.783 752.447 307.155 751.436 306.451C741.944 299.841 737.656 290.389 736.54 282.208ZM765.645 391.159C764.968 393.317 764.277 395.376 763.611 397.285C759.574 408.865 753.634 422.856 746.293 437.783C746.287 445.032 746.621 452.521 747.331 459.969C749.127 478.824 753.047 494.659 757.8 504.619C758.284 505.633 758.734 506.507 759.143 507.259C760.563 505.921 762.292 503.645 764.304 499.774C769.952 488.909 773.809 471.696 774.696 451.411C775.566 431.513 773.426 412.226 769.912 398.97C769.241 396.44 768.588 394.399 768.011 392.794C767.185 392.24 766.388 391.694 765.645 391.159ZM865.404 365.674C873.996 369.71 882.844 373.619 891.505 377.076C896.262 378.975 900.844 380.683 905.192 382.188C895.592 373.513 882.152 368.239 865.404 365.674ZM937.605 229.135C928.715 230.629 917.134 235.55 901.817 245.145C894.8 249.54 887.68 254.466 880.249 259.777C881.76 259.017 883.273 258.254 884.782 257.487C903.822 247.816 922.175 237.929 937.605 229.135ZM972.827 248.331L972.822 248.322C972.808 248.303 972.793 248.285 972.779 248.267C972.795 248.288 972.81 248.309 972.827 248.331ZM893.611 70.5764C887.932 72.7606 877.546 79.3814 862.444 95.2035C837.553 121.281 806.983 164.617 770.746 226.683C771.472 225.97 772.204 225.253 772.94 224.531C791.172 206.651 815.16 183.248 837.453 158.303C860.203 132.847 878.866 108.296 888.127 88.4374C892.34 79.4042 893.5 73.6197 893.611 70.5764ZM673.194 79.9142C661.507 96.7271 657.186 119.482 660.042 146.854C662.835 173.616 672.273 201.558 684.164 225.245C689.749 199.141 691.847 176.121 690.901 155.985L690.77 153.539C689.857 138.281 683.81 103.111 673.465 80.4899C673.376 80.2948 673.283 80.1042 673.194 79.9142Z" fill="#273322"/>
<path opacity="0.636254" d="M1023.57 458.157C1048.85 452.766 1075.51 461.065 1096.97 474.844C1119.21 489.123 1139.55 511.449 1152.75 540.545L1153.8 542.943C1175.19 593.247 1151.26 641.137 1121.85 672.89C1091.34 705.844 1047.14 731.322 1005.43 741.804C966.992 751.464 911.898 751.837 884.562 705.41C871.662 683.5 869.117 656.677 873.45 628.042C877.794 599.336 889.439 565.829 908.717 527.084C917.375 509.683 938.23 502.732 955.297 511.56C962.112 515.085 967.288 520.597 970.501 527.05C970.545 524.859 970.663 522.695 970.854 520.557C972.204 505.469 977.367 491.023 987.385 479.342C997.415 467.649 1010.39 460.967 1023.57 458.157ZM1039.86 527.184C1039.28 534.522 1042.01 552.625 1060.16 584.434C1069.78 601.3 1064.17 622.928 1047.63 632.741C1031.09 642.553 1009.88 636.834 1000.25 619.968C986.573 595.99 977.185 573.399 972.982 552.624C972.379 554.804 971.563 556.957 970.52 559.054C953.143 593.979 944.776 620.091 941.943 638.816C939.099 657.609 942.21 666.029 943.982 669.039C945.99 672.45 956.312 681.369 988.842 673.194C1018.1 665.842 1050.42 647.104 1071.46 624.378C1092.47 601.687 1095.35 583.865 1090.35 571.391L1089.84 570.201C1082.33 553.641 1071.08 541.724 1060.04 534.639C1050.66 528.614 1043.5 527.257 1039.86 527.184Z" fill="#273322"/>
<path d="M235.138 42.2353C253.884 38.3232 272.23 50.4534 276.115 69.3289C316.923 267.585 375.832 463.088 424.058 670.181C471.619 874.42 506.929 1083.49 496.007 1294.91C495.012 1314.16 478.707 1328.95 459.589 1327.95C440.471 1326.95 425.78 1310.53 426.774 1291.28C437.192 1089.63 403.593 888.085 356.56 686.116C310.192 487 248.821 280.696 208.23 83.4957C204.345 64.6202 216.392 46.1474 235.138 42.2353Z" fill="#273322"/>
<path d="M590.238 562.929C598.115 543.797 620.391 534.518 639.995 542.204C659.6 549.891 669.11 571.633 661.233 590.767C614.4 704.542 597.417 828.203 584.674 956.717C572.097 1083.56 563.611 1216.73 531.887 1341.17C526.786 1361.18 506.03 1373.37 485.527 1368.39C465.025 1363.41 452.541 1343.15 457.642 1323.14C487.604 1205.61 495.557 1080.27 508.521 949.526C521.32 820.454 538.982 687.448 590.238 562.929Z" fill="#273322"/>
<path d="M858.415 712.034C874.123 700.58 895.758 704.58 906.737 720.969C917.715 737.357 913.881 759.929 898.174 771.384C812.042 834.197 756.949 926.314 708.779 1031.04C684.58 1083.65 663.015 1137.35 639.536 1192.32C616.349 1246.6 591.695 1301.11 562.45 1351.93C552.584 1369.07 531.269 1374.62 514.84 1364.33C498.41 1354.04 493.089 1331.8 502.954 1314.65C529.961 1267.72 553.237 1216.47 576.148 1162.84C598.769 1109.88 621.473 1053.5 646.212 999.713C695.918 891.648 757.371 785.722 858.415 712.034Z" fill="#273322"/>
<path d="M223.888 627.924C240.1 617.367 261.351 622.681 271.353 639.792C380.55 826.605 491.356 1042.03 538.971 1326.76C542.282 1346.56 529.758 1365.44 510.999 1368.94C492.24 1372.43 474.35 1359.21 471.039 1339.41C425.682 1068.19 320.226 862.075 212.644 678.024C202.642 660.913 207.676 638.482 223.888 627.924Z" fill="#273322"/>
<path opacity="0.476539" d="M64.7963 342.95C84.7838 332.214 107.872 329.227 131.658 334.634H131.661C167.193 342.712 186.921 368.058 195.201 392.919C203.192 416.913 202.052 443.466 195.201 465.643C188.825 486.283 174.203 512.928 145.418 524.279C123.498 532.923 102.362 529.751 83.9936 520.207C88.5051 539.766 96.3486 556.73 106.561 568.717C119.306 583.677 136.053 591.903 162.04 587.966H162.042C183.42 584.727 196.883 571.497 204.736 545.619C212.917 518.66 211.999 484.862 206.927 459.095C202.917 438.718 217.207 419.135 238.843 415.358C260.48 411.581 281.27 425.04 285.28 445.417C291.788 478.485 293.959 524.71 281.355 566.244C268.423 608.858 237.23 652.591 174.698 662.064C118.285 670.611 73.7074 650.074 44.4099 615.686C16.7743 583.249 3.7094 540.126 0.699311 500.295C-2.30389 460.554 4.24299 418.07 22.7224 385.562C32.0905 369.083 45.6762 353.22 64.7963 342.95ZM112.962 407.589C108.02 406.466 105.85 407.298 104.275 408.143C101.834 409.455 97.5529 412.938 92.9769 420.988C90.5657 425.23 88.4023 430.178 86.5543 435.699C96.8388 436.105 106.953 440.241 114.411 447.991C115.19 448.801 115.919 449.513 116.59 450.142C117.312 448.595 118.036 446.775 118.684 444.675C121.823 434.516 121.781 423.233 119.166 415.381C117.13 409.267 114.899 408.112 113.504 407.722L112.962 407.589Z" fill="#273322"/>
<path opacity="0.645717" d="M405.79 125.338C425.546 121.058 445.046 133.531 449.345 153.199C462.026 211.213 456.174 267.92 444.81 320.74C433.866 371.603 415.796 426.182 404.027 470.8C398.892 490.268 378.876 501.904 359.321 496.792C339.765 491.68 328.074 471.754 333.209 452.286C346.975 400.096 362.505 355.262 373.217 305.474C383.508 257.642 387.365 212.454 377.802 168.699C373.503 149.031 386.034 129.617 405.79 125.338Z" fill="#273322"/>
<path opacity="0.577218" d="M222.199 256.388C237.821 243.5 259.387 247.919 270.366 266.257C282.157 285.952 296.741 301.375 315.053 321.512C332.537 340.739 352.887 363.796 368.707 395.302C378.403 414.611 372.929 439.494 356.48 450.876C340.031 462.259 318.835 455.831 309.138 436.521C298.804 415.941 285.031 399.72 267.781 380.751C251.359 362.693 230.596 341 213.792 312.932C202.813 294.593 206.577 269.277 222.199 256.388Z" fill="#273322"/>
<path opacity="0.482143" d="M420.002 425.314C428.539 417.637 440.923 412.353 454.793 416.403C467.024 419.974 474.861 429.284 479.254 436.086C483.899 443.277 487.171 451.439 489.541 459.116C498.753 488.964 501.096 534.066 493.302 577.518C485.445 621.314 466.039 670.018 425.885 699.797C411.554 710.424 392.387 705.781 383.074 689.426C379.364 682.91 377.779 675.519 378.119 668.312C374.901 662.377 373.186 655.298 373.55 647.801C376.101 595.262 380.073 553.953 384.967 522.161C389.766 490.977 395.768 466.747 403.338 449.791C407.069 441.434 412.316 432.226 420.002 425.314Z" fill="#273322"/>
<path d="M717.739 624.744C728.841 622.111 747.194 619.903 764.327 629.648C783.296 640.437 787.911 658.158 788.436 669.374C788.954 680.45 786.14 691.275 782.984 700.083C776.488 718.209 764.53 738.601 750.539 757.911C723.18 795.673 680.43 839.651 636.244 859.806C613.972 869.965 583.519 877.475 553.592 864.917C523.478 852.28 507.281 824.963 499.142 794.402C493.928 774.825 507.031 755.085 528.408 750.311C529.709 750.02 531.011 749.791 532.309 749.623C547.121 736.174 563.41 724.016 575.867 714.059L578.812 711.687C621.255 677.156 654.606 653.826 680.27 639.992C692.971 633.145 705.6 627.624 717.739 624.744ZM668.38 737.573C657.425 745.751 645.234 755.258 631.726 766.249L631.714 766.258C616.315 778.776 604.026 787.735 592.786 797.506C594.849 796.911 597.465 795.971 600.716 794.488C612.774 788.988 627.489 778.6 642.951 764.236C651.83 755.987 660.433 746.905 668.38 737.573Z" fill="#273322"/>
<path d="M446.39 792.987C459.388 787.167 474 787.1 487.289 792.23C510.728 801.279 526.323 824.497 537.364 851.73C542.795 865.125 537.515 879.795 525.483 887.736C522.244 903.787 505.92 914.875 488.165 912.731C458.021 909.09 435.268 895.307 423.412 874.768C412.38 855.658 412.605 833.425 421.707 816.282C426.335 807.565 434.251 798.423 446.39 792.987Z" fill="#273322"/>
</svg>
